<svg width="623" height="58" viewBox="0 0 623 58" fill="none" xmlns="http://www.w3.org/2000/svg">
<path d="M0.8 28.92C0.8 23.32 1.92 18.36 4.16 14.04C6.4 9.66667 9.52 6.25333 13.52 3.8C17.52 1.34666 22.0267 0.119998 27.04 0.119998C33.6 0.119998 39.0133 1.64 43.28 4.68C47.6 7.72 50.7467 11.9333 52.72 17.32H51.12C49.4133 12.5733 46.5067 8.76 42.4 5.88C38.2933 3 33.1733 1.56 27.04 1.56C22.4533 1.56 18.2933 2.68 14.56 4.92C10.8267 7.10667 7.86667 10.28 5.68 14.44C3.54667 18.5467 2.48 23.3733 2.48 28.92C2.48 34.4133 3.54667 39.2133 5.68 43.32C7.86667 47.4267 10.8267 50.6 14.56 52.84C18.3467 55.0267 22.5067 56.12 27.04 56.12C33.1733 56.12 38.2933 54.7067 42.4 51.88C46.5067 49 49.4133 45.1867 51.12 40.44H52.72C50.7467 45.8267 47.6 50.04 43.28 53.08C39.0133 56.0667 33.6 57.56 27.04 57.56C22.0267 57.56 17.52 56.36 13.52 53.96C9.52 51.5067 6.4 48.12 4.16 43.8C1.92 39.4267 0.8 34.4667 0.8 28.92ZM65.8844 2.12V28.12H89.4044V29.56H65.8844V55.56H91.8044V57H64.2844V0.679996H91.8044V2.12H65.8844ZM133.366 57L118.326 32.44H116.806H104.166V57H102.566V0.679996H116.646C122.832 0.679996 127.419 2.09333 130.406 4.92C133.446 7.74666 134.966 11.6133 134.966 16.52C134.966 21.0533 133.686 24.68 131.126 27.4C128.566 30.12 124.912 31.7467 120.166 32.28L135.366 57H133.366ZM116.806 30.92C122.299 30.92 126.406 29.6133 129.126 27C131.899 24.3867 133.286 20.8933 133.286 16.52C133.286 7.02666 127.739 2.28 116.646 2.28H104.166V30.92H116.806ZM174.578 0.679996V2.12H158.178V57H156.578V2.12H140.178V0.679996H174.578ZM184.556 0.679996V57H182.956V0.679996H184.556ZM225.711 0.679996V2.12H199.791V28.12H223.311V29.56H199.791V57H198.191V0.679996H225.711ZM237.291 0.679996V57H235.691V0.679996H237.291ZM248.925 28.92C248.925 23.32 250.045 18.36 252.285 14.04C254.525 9.66667 257.645 6.25333 261.645 3.8C265.645 1.34666 270.152 0.119998 275.165 0.119998C281.725 0.119998 287.138 1.64 291.405 4.68C295.725 7.72 298.872 11.9333 300.845 17.32H299.245C297.538 12.5733 294.632 8.76 290.525 5.88C286.418 3 281.298 1.56 275.165 1.56C270.578 1.56 266.418 2.68 262.685 4.92C258.952 7.10667 255.992 10.28 253.805 14.44C251.672 18.5467 250.605 23.3733 250.605 28.92C250.605 34.4133 251.672 39.2133 253.805 43.32C255.992 47.4267 258.952 50.6 262.685 52.84C266.472 55.0267 270.632 56.12 275.165 56.12C281.298 56.12 286.418 54.7067 290.525 51.88C294.632 49 297.538 45.1867 299.245 40.44H300.845C298.872 45.8267 295.725 50.04 291.405 53.08C287.138 56.0667 281.725 57.56 275.165 57.56C270.152 57.56 265.645 56.36 261.645 53.96C257.645 51.5067 254.525 48.12 252.285 43.8C250.045 39.4267 248.925 34.4667 248.925 28.92ZM343.609 41.48H315.769L309.849 57H308.009L328.889 2.36H330.489L351.289 57H349.449L343.609 41.48ZM343.049 40.04L329.689 4.92L316.329 40.04H343.049ZM358.456 28.92C358.456 23.32 359.576 18.36 361.816 14.04C364.056 9.66667 367.176 6.25333 371.176 3.8C375.176 1.34666 379.683 0.119998 384.696 0.119998C391.256 0.119998 396.67 1.64 400.936 4.68C405.256 7.72 408.403 11.9333 410.376 17.32H408.776C407.07 12.5733 404.163 8.76 400.056 5.88C395.95 3 390.83 1.56 384.696 1.56C380.11 1.56 375.95 2.68 372.216 4.92C368.483 7.10667 365.523 10.28 363.336 14.44C361.203 18.5467 360.136 23.3733 360.136 28.92C360.136 34.4133 361.203 39.2133 363.336 43.32C365.523 47.4267 368.483 50.6 372.216 52.84C376.003 55.0267 380.163 56.12 384.696 56.12C390.83 56.12 395.95 54.7067 400.056 51.88C404.163 49 407.07 45.1867 408.776 40.44H410.376C408.403 45.8267 405.256 50.04 400.936 53.08C396.67 56.0667 391.256 57.56 384.696 57.56C379.683 57.56 375.176 56.36 371.176 53.96C367.176 51.5067 364.056 48.12 361.816 43.8C359.576 39.4267 358.456 34.4667 358.456 28.92ZM423.541 0.679996V57H421.941V0.679996H423.541ZM462.055 57.64C456.882 57.64 452.242 56.44 448.135 54.04C444.082 51.5867 440.908 48.1733 438.615 43.8C436.322 39.4267 435.175 34.4667 435.175 28.92C435.175 23.3733 436.322 18.4133 438.615 14.04C440.908 9.66667 444.082 6.28 448.135 3.88C452.242 1.42666 456.882 0.199997 462.055 0.199997C467.228 0.199997 471.842 1.42666 475.895 3.88C480.002 6.28 483.202 9.66667 485.495 14.04C487.788 18.4133 488.935 23.3733 488.935 28.92C488.935 34.4667 487.788 39.4267 485.495 43.8C483.202 48.1733 480.002 51.5867 475.895 54.04C471.842 56.44 467.228 57.64 462.055 57.64ZM462.055 56.2C466.748 56.2 471.015 55.1067 474.855 52.92C478.695 50.68 481.708 47.5067 483.895 43.4C486.135 39.24 487.255 34.4133 487.255 28.92C487.255 23.4267 486.135 18.6267 483.895 14.52C481.708 10.36 478.695 7.18666 474.855 5C471.015 2.76 466.748 1.64 462.055 1.64C457.362 1.64 453.095 2.76 449.255 5C445.415 7.18666 442.375 10.36 440.135 14.52C437.948 18.6267 436.855 23.4267 436.855 28.92C436.855 34.4133 437.948 39.24 440.135 43.4C442.375 47.5067 445.415 50.68 449.255 52.92C453.095 55.1067 457.362 56.2 462.055 56.2ZM538.694 57H537.094L502.134 3.64V57H500.534V0.759999H502.134L537.094 54.04V0.759999H538.694V57ZM553.931 2.12V28.12H577.451V29.56H553.931V55.56H579.851V57H552.331V0.679996H579.851V2.12H553.931ZM606.053 57.56C602.479 57.56 599.359 56.92 596.693 55.64C594.079 54.36 592.053 52.68 590.613 50.6C589.173 48.4667 588.319 46.1733 588.053 43.72H589.653C589.919 45.5867 590.586 47.4533 591.653 49.32C592.773 51.1867 594.506 52.7867 596.853 54.12C599.253 55.4533 602.319 56.12 606.053 56.12C609.039 56.12 611.679 55.56 613.973 54.44C616.266 53.2667 618.026 51.72 619.253 49.8C620.479 47.88 621.093 45.7467 621.093 43.4C621.093 40.36 620.399 37.96 619.013 36.2C617.626 34.3867 615.893 33.0533 613.813 32.2C611.786 31.3467 609.039 30.4667 605.573 29.56C601.946 28.6 599.039 27.64 596.853 26.68C594.666 25.72 592.799 24.2533 591.253 22.28C589.759 20.2533 589.013 17.5333 589.013 14.12C589.013 11.6667 589.679 9.37333 591.013 7.24C592.399 5.05333 594.346 3.32 596.853 2.04C599.413 0.759998 602.319 0.119998 605.573 0.119998C608.879 0.119998 611.733 0.706665 614.133 1.88C616.533 3.05333 618.399 4.54666 619.733 6.36C621.119 8.12 622.026 9.98666 622.453 11.96H620.853C620.479 10.4133 619.706 8.84 618.533 7.24C617.359 5.64 615.679 4.30666 613.493 3.24C611.306 2.12 608.666 1.56 605.573 1.56C602.853 1.56 600.346 2.09333 598.053 3.16C595.813 4.17333 593.999 5.64 592.613 7.56C591.279 9.42667 590.613 11.6133 590.613 14.12C590.613 17.2133 591.306 19.6933 592.693 21.56C594.133 23.3733 595.893 24.7333 597.973 25.64C600.053 26.4933 602.826 27.3733 606.293 28.28C609.919 29.24 612.799 30.2 614.933 31.16C617.119 32.0667 618.959 33.5067 620.453 35.48C621.946 37.4 622.693 40.04 622.693 43.4C622.693 45.7467 622.053 48.0133 620.773 50.2C619.546 52.3867 617.679 54.1733 615.173 55.56C612.666 56.8933 609.626 57.56 606.053 57.56Z" fill="#5064AA" fill-opacity="0.1"/>
</svg>
