<svg width="350" height="58" viewBox="0 0 350 58" fill="none" xmlns="http://www.w3.org/2000/svg">
<path d="M2.4 2.12V28.12H25.92V29.56H2.4V55.56H28.32V57H0.8V0.679996H28.32V2.12H2.4ZM89.2413 2.28V57H87.6413V6.2L65.0013 57H63.4013L40.6813 6.2V57H39.0813V2.28H40.6813L64.2013 54.92L87.6413 2.28H89.2413ZM135.071 16.2C135.071 21.3733 133.551 25.24 130.511 27.8C127.471 30.36 122.991 31.64 117.071 31.64H104.431V57H102.831V0.679996H117.071C123.258 0.679996 127.791 2.04 130.671 4.76C133.605 7.48 135.071 11.2933 135.071 16.2ZM117.071 29.96C122.831 29.96 126.991 28.76 129.551 26.36C132.165 23.96 133.471 20.5733 133.471 16.2C133.471 11.6133 132.191 8.14666 129.631 5.8C127.071 3.45333 122.885 2.28 117.071 2.28H104.431V29.96H117.071ZM175.897 57L160.857 32.44H159.337H146.697V57H145.097V0.679996H159.177C165.364 0.679996 169.95 2.09333 172.937 4.92C175.977 7.74666 177.497 11.6133 177.497 16.52C177.497 21.0533 176.217 24.68 173.657 27.4C171.097 30.12 167.444 31.7467 162.697 32.28L177.897 57H175.897ZM159.337 30.92C164.83 30.92 168.937 29.6133 171.657 27C174.43 24.3867 175.817 20.8933 175.817 16.52C175.817 7.02666 170.27 2.28 159.177 2.28H146.697V30.92H159.337ZM189.509 2.12V28.12H213.029V29.56H189.509V55.56H215.429V57H187.909V0.679996H215.429V2.12H189.509ZM241.631 57.56C238.057 57.56 234.937 56.92 232.271 55.64C229.657 54.36 227.631 52.68 226.191 50.6C224.751 48.4667 223.897 46.1733 223.631 43.72H225.231C225.497 45.5867 226.164 47.4533 227.231 49.32C228.351 51.1867 230.084 52.7867 232.431 54.12C234.831 55.4533 237.897 56.12 241.631 56.12C244.617 56.12 247.257 55.56 249.551 54.44C251.844 53.2667 253.604 51.72 254.831 49.8C256.057 47.88 256.671 45.7467 256.671 43.4C256.671 40.36 255.977 37.96 254.591 36.2C253.204 34.3867 251.471 33.0533 249.391 32.2C247.364 31.3467 244.617 30.4667 241.151 29.56C237.524 28.6 234.617 27.64 232.431 26.68C230.244 25.72 228.377 24.2533 226.831 22.28C225.337 20.2533 224.591 17.5333 224.591 14.12C224.591 11.6667 225.257 9.37333 226.591 7.24C227.977 5.05333 229.924 3.32 232.431 2.04C234.991 0.759998 237.897 0.119998 241.151 0.119998C244.457 0.119998 247.311 0.706665 249.711 1.88C252.111 3.05333 253.977 4.54666 255.311 6.36C256.697 8.12 257.604 9.98666 258.031 11.96H256.431C256.057 10.4133 255.284 8.84 254.111 7.24C252.937 5.64 251.257 4.30666 249.071 3.24C246.884 2.12 244.244 1.56 241.151 1.56C238.431 1.56 235.924 2.09333 233.631 3.16C231.391 4.17333 229.577 5.64 228.191 7.56C226.857 9.42667 226.191 11.6133 226.191 14.12C226.191 17.2133 226.884 19.6933 228.271 21.56C229.711 23.3733 231.471 24.7333 233.551 25.64C235.631 26.4933 238.404 27.3733 241.871 28.28C245.497 29.24 248.377 30.2 250.511 31.16C252.697 32.0667 254.537 33.5067 256.031 35.48C257.524 37.4 258.271 40.04 258.271 43.4C258.271 45.7467 257.631 48.0133 256.351 50.2C255.124 52.3867 253.257 54.1733 250.751 55.56C248.244 56.8933 245.204 57.56 241.631 57.56ZM300.281 41.48H272.441L266.521 57H264.681L285.561 2.36H287.161L307.961 57H306.121L300.281 41.48ZM299.721 40.04L286.361 4.92L273.001 40.04H299.721ZM332.568 57.56C328.995 57.56 325.875 56.92 323.208 55.64C320.595 54.36 318.568 52.68 317.128 50.6C315.688 48.4667 314.835 46.1733 314.568 43.72H316.168C316.435 45.5867 317.101 47.4533 318.168 49.32C319.288 51.1867 321.021 52.7867 323.368 54.12C325.768 55.4533 328.835 56.12 332.568 56.12C335.555 56.12 338.195 55.56 340.488 54.44C342.781 53.2667 344.541 51.72 345.768 49.8C346.995 47.88 347.608 45.7467 347.608 43.4C347.608 40.36 346.915 37.96 345.528 36.2C344.141 34.3867 342.408 33.0533 340.328 32.2C338.301 31.3467 335.555 30.4667 332.088 29.56C328.461 28.6 325.555 27.64 323.368 26.68C321.181 25.72 319.315 24.2533 317.768 22.28C316.275 20.2533 315.528 17.5333 315.528 14.12C315.528 11.6667 316.195 9.37333 317.528 7.24C318.915 5.05333 320.861 3.32 323.368 2.04C325.928 0.759998 328.835 0.119998 332.088 0.119998C335.395 0.119998 338.248 0.706665 340.648 1.88C343.048 3.05333 344.915 4.54666 346.248 6.36C347.635 8.12 348.541 9.98666 348.968 11.96H347.368C346.995 10.4133 346.221 8.84 345.048 7.24C343.875 5.64 342.195 4.30666 340.008 3.24C337.821 2.12 335.181 1.56 332.088 1.56C329.368 1.56 326.861 2.09333 324.568 3.16C322.328 4.17333 320.515 5.64 319.128 7.56C317.795 9.42667 317.128 11.6133 317.128 14.12C317.128 17.2133 317.821 19.6933 319.208 21.56C320.648 23.3733 322.408 24.7333 324.488 25.64C326.568 26.4933 329.341 27.3733 332.808 28.28C336.435 29.24 339.315 30.2 341.448 31.16C343.635 32.0667 345.475 33.5067 346.968 35.48C348.461 37.4 349.208 40.04 349.208 43.4C349.208 45.7467 348.568 48.0133 347.288 50.2C346.061 52.3867 344.195 54.1733 341.688 55.56C339.181 56.8933 336.141 57.56 332.568 57.56Z" fill="#5064AA" fill-opacity="0.1"/>
</svg>
