<svg width="749" height="87" viewBox="0 0 749 87" fill="none" xmlns="http://www.w3.org/2000/svg">
<path d="M40.52 86.96C32.76 86.96 25.8 85.16 19.64 81.56C13.56 77.88 8.8 72.76 5.36 66.2C1.92 59.64 0.2 52.2 0.2 43.88C0.2 35.56 1.92 28.12 5.36 21.56C8.8 15 13.56 9.92 19.64 6.32C25.8 2.64 32.76 0.799995 40.52 0.799995C48.28 0.799995 55.2 2.64 61.28 6.32C67.44 9.92 72.24 15 75.68 21.56C79.12 28.12 80.84 35.56 80.84 43.88C80.84 52.2 79.12 59.64 75.68 66.2C72.24 72.76 67.44 77.88 61.28 81.56C55.2 85.16 48.28 86.96 40.52 86.96ZM40.52 84.8C47.56 84.8 53.96 83.16 59.72 79.88C65.48 76.52 70 71.76 73.28 65.6C76.64 59.36 78.32 52.12 78.32 43.88C78.32 35.64 76.64 28.44 73.28 22.28C70 16.04 65.48 11.28 59.72 8C53.96 4.64 47.56 2.96 40.52 2.96C33.48 2.96 27.08 4.64 21.32 8C15.56 11.28 11 16.04 7.64 22.28C4.36 28.44 2.72 35.64 2.72 43.88C2.72 52.12 4.36 59.36 7.64 65.6C11 71.76 15.56 76.52 21.32 79.88C27.08 83.16 33.48 84.8 40.52 84.8ZM146.599 24.8C146.599 32.56 144.319 38.36 139.759 42.2C135.199 46.04 128.479 47.96 119.599 47.96H100.639V86H98.2391V1.51999H119.599C128.879 1.51999 135.679 3.55999 139.999 7.63999C144.399 11.72 146.599 17.44 146.599 24.8ZM119.599 45.44C128.239 45.44 134.479 43.64 138.319 40.04C142.239 36.44 144.199 31.36 144.199 24.8C144.199 17.92 142.279 12.72 138.439 9.19999C134.599 5.68 128.319 3.92 119.599 3.92H100.639V45.44H119.599ZM164.038 3.67999V42.68H199.318V44.84H164.038V83.84H202.918V86H161.638V1.51999H202.918V3.67999H164.038ZM265.259 86L242.699 49.16H240.419H221.459V86H219.059V1.51999H240.179C249.459 1.51999 256.339 3.63999 260.819 7.88C265.379 12.12 267.659 17.92 267.659 25.28C267.659 32.08 265.739 37.52 261.899 41.6C258.059 45.68 252.579 48.12 245.459 48.92L268.259 86H265.259ZM240.419 46.88C248.659 46.88 254.819 44.92 258.899 41C263.059 37.08 265.139 31.84 265.139 25.28C265.139 11.04 256.819 3.92 240.179 3.92H221.459V46.88H240.419ZM330.078 62.72H288.318L279.438 86H276.678L307.998 4.04H310.398L341.598 86H338.838L330.078 62.72ZM329.238 60.56L309.198 7.88L289.158 60.56H329.238ZM352.348 43.88C352.348 35.48 354.028 28.04 357.388 21.56C360.748 15 365.428 9.88 371.428 6.2C377.428 2.52 384.188 0.679997 391.708 0.679997C401.548 0.679997 409.668 2.96 416.068 7.51999C422.548 12.08 427.268 18.4 430.228 26.48H427.828C425.268 19.36 420.908 13.64 414.748 9.31999C408.588 5 400.908 2.84 391.708 2.84C384.828 2.84 378.588 4.52 372.988 7.88C367.388 11.16 362.948 15.92 359.668 22.16C356.468 28.32 354.868 35.56 354.868 43.88C354.868 52.12 356.468 59.32 359.668 65.48C362.948 71.64 367.388 76.4 372.988 79.76C378.668 83.04 384.908 84.68 391.708 84.68C400.908 84.68 408.588 82.56 414.748 78.32C420.908 74 425.268 68.28 427.828 61.16H430.228C427.268 69.24 422.548 75.56 416.068 80.12C409.668 84.6 401.548 86.84 391.708 86.84C384.188 86.84 377.428 85.04 371.428 81.44C365.428 77.76 360.748 72.68 357.388 66.2C354.028 59.64 352.348 52.2 352.348 43.88ZM449.975 1.51999V86H447.575V1.51999H449.975ZM507.747 86.96C499.987 86.96 493.027 85.16 486.867 81.56C480.787 77.88 476.027 72.76 472.587 66.2C469.147 59.64 467.427 52.2 467.427 43.88C467.427 35.56 469.147 28.12 472.587 21.56C476.027 15 480.787 9.92 486.867 6.32C493.027 2.64 499.987 0.799995 507.747 0.799995C515.507 0.799995 522.427 2.64 528.507 6.32C534.667 9.92 539.467 15 542.907 21.56C546.347 28.12 548.067 35.56 548.067 43.88C548.067 52.2 546.347 59.64 542.907 66.2C539.467 72.76 534.667 77.88 528.507 81.56C522.427 85.16 515.507 86.96 507.747 86.96ZM507.747 84.8C514.787 84.8 521.187 83.16 526.947 79.88C532.707 76.52 537.227 71.76 540.507 65.6C543.867 59.36 545.547 52.12 545.547 43.88C545.547 35.64 543.867 28.44 540.507 22.28C537.227 16.04 532.707 11.28 526.947 8C521.187 4.64 514.787 2.96 507.747 2.96C500.707 2.96 494.307 4.64 488.547 8C482.787 11.28 478.227 16.04 474.867 22.28C471.587 28.44 469.947 35.64 469.947 43.88C469.947 52.12 471.587 59.36 474.867 65.6C478.227 71.76 482.787 76.52 488.547 79.88C494.307 83.16 500.707 84.8 507.747 84.8ZM622.706 86H620.306L567.866 5.95999V86H565.466V1.64H567.866L620.306 81.56V1.64H622.706V86ZM645.561 3.67999V42.68H680.841V44.84H645.561V83.84H684.441V86H643.161V1.51999H684.441V3.67999H645.561ZM723.743 86.84C718.383 86.84 713.703 85.88 709.703 83.96C705.783 82.04 702.743 79.52 700.583 76.4C698.423 73.2 697.143 69.76 696.743 66.08H699.143C699.543 68.88 700.543 71.68 702.143 74.48C703.823 77.28 706.423 79.68 709.943 81.68C713.543 83.68 718.143 84.68 723.743 84.68C728.223 84.68 732.183 83.84 735.623 82.16C739.063 80.4 741.703 78.08 743.543 75.2C745.383 72.32 746.303 69.12 746.303 65.6C746.303 61.04 745.263 57.44 743.183 54.8C741.103 52.08 738.503 50.08 735.383 48.8C732.343 47.52 728.223 46.2 723.023 44.84C717.583 43.4 713.223 41.96 709.943 40.52C706.663 39.08 703.863 36.88 701.543 33.92C699.303 30.88 698.183 26.8 698.183 21.68C698.183 18 699.183 14.56 701.183 11.36C703.263 8.07999 706.183 5.47999 709.943 3.56C713.783 1.64 718.143 0.679997 723.023 0.679997C727.983 0.679997 732.263 1.56 735.863 3.32C739.463 5.08 742.263 7.31999 744.263 10.04C746.343 12.68 747.703 15.48 748.343 18.44H745.943C745.383 16.12 744.223 13.76 742.463 11.36C740.703 8.96 738.183 6.96 734.903 5.35999C731.623 3.68 727.663 2.84 723.023 2.84C718.943 2.84 715.183 3.64 711.743 5.24C708.383 6.75999 705.663 8.96 703.583 11.84C701.583 14.64 700.583 17.92 700.583 21.68C700.583 26.32 701.623 30.04 703.703 32.84C705.863 35.56 708.503 37.6 711.623 38.96C714.743 40.24 718.903 41.56 724.103 42.92C729.543 44.36 733.863 45.8 737.063 47.24C740.343 48.6 743.103 50.76 745.343 53.72C747.583 56.6 748.703 60.56 748.703 65.6C748.703 69.12 747.743 72.52 745.823 75.8C743.983 79.08 741.183 81.76 737.423 83.84C733.663 85.84 729.103 86.84 723.743 86.84Z" fill="white" fill-opacity="0.2"/>
</svg>
