<svg width="100" height="101" viewBox="0 0 100 101" fill="none" xmlns="http://www.w3.org/2000/svg">
<path d="M65.0181 0.172276C58.2199 0.169951 51.5713 2.1608 45.8934 5.89906L38.1827 1.45299C37.4191 1.02118 36.5159 0.907215 35.6693 1.13591C34.8166 1.36074 34.0902 1.92047 33.6576 2.68874L31.162 7.01465C29.3084 6.77897 27.4323 6.77897 25.5787 7.01465L23.0932 2.70425C22.6598 1.929 21.9296 1.36229 21.0714 1.13514C20.2178 0.904889 19.3084 1.02195 18.5417 1.46152L9.87594 6.46267C9.11154 6.90534 8.55413 7.63485 8.32853 8.48918C8.10216 9.34273 8.22542 10.2521 8.67042 11.0157L11.1644 15.3393C10.0279 16.8169 9.09216 18.4388 8.38203 20.1621H3.3832C1.5443 20.1645 0.0534923 21.6545 0.0519419 23.4934V33.4887C0.0534923 35.3276 1.5443 36.8177 3.3832 36.82H8.38203C9.09293 38.5434 10.0279 40.1652 11.1644 41.6428L8.67507 45.9586C8.22697 46.723 8.10138 47.6347 8.32776 48.4914C8.55413 49.3481 9.11309 50.0791 9.88059 50.5226L18.558 55.5291C19.3208 55.9609 20.224 56.0749 21.0714 55.8462C21.9241 55.6222 22.6498 55.0617 23.0831 54.2934L25.5787 49.9675C27.4323 50.2047 29.3084 50.2047 31.162 49.9675L32.9366 53.0522L30.9077 55.0818C29.4038 56.5687 29.0169 58.8503 29.9472 60.7497L24.7895 65.9067C22.887 65.0376 20.6481 65.412 19.1317 66.8525L1.46368 84.5212C0.526396 85.4585 0 86.7299 0 88.0548C0 89.3805 0.526396 90.6519 1.46368 91.5892L8.53087 98.6564C10.4837 100.605 13.646 100.605 15.5988 98.6564L33.2676 80.9884C34.7561 79.4906 35.1406 77.2191 34.2289 75.3151L39.3712 70.1721C40.6217 70.7814 42.0714 70.8334 43.3622 70.3147V71.8017C43.3645 73.6406 44.8553 75.1314 46.6942 75.1337H51.693C52.4032 76.8571 53.3389 78.4781 54.4754 79.9558L51.9861 84.2716C51.538 85.036 51.4124 85.9477 51.6388 86.8043C51.8651 87.6618 52.4241 88.3928 53.1916 88.8363L61.869 93.8421C62.6318 94.2747 63.535 94.3886 64.3824 94.1592C65.2351 93.9351 65.9608 93.3754 66.3941 92.6063L68.8897 88.2812C70.7433 88.5169 72.6194 88.5169 74.473 88.2812L76.9585 92.5908C77.3919 93.3669 78.1214 93.9328 78.9804 94.1599C79.8331 94.3902 80.7425 94.2731 81.5092 93.8335L90.175 88.8332C90.9394 88.3897 91.496 87.661 91.7224 86.8067C91.9488 85.9523 91.8255 85.043 91.3805 84.2801L88.8873 79.9558C90.023 78.4781 90.9588 76.8571 91.6689 75.1337H96.6677C98.5074 75.1314 99.9974 73.6406 99.9998 71.8017V61.8071C99.9974 59.9682 98.5074 58.4774 96.6677 58.4751H91.6658C91.603 58.3208 91.5146 58.1611 91.4456 58.0045C100.422 47.6658 102.529 33.0375 96.8391 20.5854C91.1487 8.13334 78.709 0.152895 65.0181 0.172276ZM96.6677 35.154C96.6561 46.0385 91.0479 56.1517 81.8224 61.9265C81.7852 61.9536 81.7387 61.9684 81.7046 61.9978C75.4754 65.9617 68.0291 67.5517 60.7247 66.4788C60.4743 66.3633 60.1983 66.3121 59.9231 66.3299C59.9022 66.3323 59.8859 66.3447 59.8657 66.3478C43.2909 63.6026 31.7535 48.3798 33.5909 31.6801C35.4282 14.9804 49.9991 2.62982 66.774 3.55392C83.5497 4.47725 96.6763 18.3535 96.6677 35.154ZM81.6759 66.8044C81.6821 71.6978 78.14 75.8748 73.3109 76.6672C68.4819 77.4595 63.7901 74.6344 62.2326 69.9946C63.1544 70.0682 64.0777 70.1357 65.0181 70.1357C70.8115 70.1426 76.5151 68.7007 81.6092 65.9415C81.634 66.2292 81.6759 66.5168 81.6759 66.8044ZM30.0364 35.154C30.0364 36.2176 30.103 37.2642 30.1953 38.3038C26.4702 38.9984 22.673 37.5247 20.3907 34.4997C18.1091 31.4746 17.7354 27.4193 19.4255 24.0275C21.1163 20.6366 24.5809 18.4938 28.3703 18.4961C30.2007 18.4977 31.9939 19.0117 33.5467 19.98C31.2427 24.7067 30.0418 29.8954 30.0364 35.154ZM25.005 46.5091C24.3119 46.3788 23.6119 46.7029 23.2614 47.3153L20.2077 52.6343L11.5559 47.6309L14.6213 42.3173C14.974 41.7056 14.9027 40.9381 14.4437 40.4016C12.9769 38.6976 11.8435 36.7324 11.1039 34.6097C10.8721 33.9384 10.2403 33.4887 9.53017 33.4887H3.3832V23.4934H9.53017C10.2395 23.4934 10.8706 23.0438 11.1032 22.3732C11.8435 20.2505 12.9769 18.2853 14.4445 16.5813C14.9034 16.0448 14.9748 15.2773 14.6213 14.6656L11.5458 9.34506L20.1969 4.35243L23.2622 9.66601C23.6119 10.28 24.3119 10.6033 25.0058 10.4723C27.23 10.0676 29.51 10.0676 31.7342 10.4723C32.4272 10.6017 33.1265 10.2792 33.4785 9.66756L36.533 4.34778L42.9459 8.04573C39.8565 10.5785 37.2199 13.619 35.1499 17.0363C33.1025 15.8068 30.7589 15.1594 28.3703 15.1649C23.3211 15.1447 18.6952 17.979 16.4198 22.4863C14.1452 26.9944 14.6127 32.4003 17.6285 36.4494C20.6434 40.4993 25.688 42.4972 30.6589 41.6103C30.9729 43.2701 31.4086 44.9051 31.9621 46.5013C31.8861 46.499 31.8101 46.5013 31.7342 46.5091C29.51 46.9138 27.2307 46.9138 25.0065 46.5091H25.005ZM36.7942 68.037L32.0892 72.7428L29.7325 70.3876L27.3765 68.0316L32.0892 63.3204L32.1923 63.4235L36.7942 68.037ZM13.2429 96.3004C12.5916 96.9508 11.5373 96.9508 10.8861 96.3004L3.81889 89.2324C3.50646 88.9208 3.33126 88.4967 3.33126 88.0556C3.33126 87.6137 3.50646 87.1896 3.81889 86.878L6.17488 84.522L15.5988 93.9452L13.2429 96.3004ZM30.9116 78.6324L17.9541 91.59L8.53087 82.166L21.4877 69.2092C22.1466 68.5805 23.1831 68.5805 23.8429 69.2092L30.9109 76.2772C31.5597 76.9284 31.5597 77.9812 30.9116 78.6324ZM40.348 66.8757L40.3333 66.8532L34.5476 61.0675L33.2637 59.7798C32.618 59.1325 32.618 58.0851 33.2637 57.4378L36.012 54.6888C38.5207 58.3999 41.714 61.5986 45.4197 64.1143L42.6846 66.8594C42.0427 67.5068 40.9984 67.5138 40.3472 66.8757H40.348ZM96.6677 61.8071V71.8017H90.5215C89.8122 71.8024 89.1803 72.2513 88.9478 72.9219C88.2082 75.0453 87.0755 77.0098 85.6088 78.7138C85.149 79.2503 85.0785 80.0178 85.4312 80.6295L88.5059 85.9508L79.8548 90.9434L76.7895 85.6291C76.4375 85.0182 75.739 84.6949 75.0452 84.8228C72.821 85.2283 70.5417 85.2283 68.3175 84.8228C67.6237 84.6933 66.9244 85.0166 66.5732 85.6291L63.5187 90.9481L54.8669 85.9446L57.9323 80.6302C58.285 80.0193 58.2137 79.2511 57.7547 78.7146C56.2872 77.0114 55.1545 75.0461 54.4149 72.9227C54.1824 72.2521 53.5505 71.8017 52.8412 71.8017H46.6942V67.5541L48.3432 65.8989C51.5636 67.6432 55.0398 68.8673 58.6424 69.5255C59.5603 74.236 62.9443 78.0874 67.4973 79.6038C72.0504 81.121 77.0678 80.0682 80.6278 76.8493C84.187 73.6305 85.7374 68.7441 84.6854 64.0616C86.1848 63.0274 87.6012 61.8777 88.9222 60.6241C88.9323 60.6535 88.9462 60.6861 88.9571 60.7148C89.1966 61.3714 89.8223 61.8079 90.5215 61.8071H96.6677Z" fill="white"/>
<path d="M37.0478 31.2265C37.0361 31.2653 37.0462 31.3032 37.0377 31.342C35.8647 40.0682 38.8254 48.8433 45.046 55.0748C45.4011 55.4291 45.7817 55.74 46.15 56.0718C46.1601 56.085 46.1771 56.0927 46.1872 56.1051C53.8614 63.0576 64.7204 65.2624 74.4986 61.8544C84.2769 58.4456 91.4123 49.9682 93.1023 39.7519C94.7916 29.5357 90.7665 19.2124 82.6062 12.8367C82.5326 12.7716 82.4527 12.7127 82.3682 12.6615C74.387 6.46185 63.7017 5.0005 54.3483 8.82869C44.9956 12.6569 38.4013 21.1909 37.0571 31.2071L37.0478 31.2265ZM62.3512 59.8659C66.2267 53.9491 73.88 51.8094 80.2626 54.8577C75.1599 58.772 68.7439 60.5659 62.3512 59.8659ZM82.9357 52.5002C78.8633 50.1419 74.011 49.5248 69.4781 50.7892C64.9444 52.0529 61.1116 55.0911 58.8471 59.217C55.4949 58.365 52.3582 56.8207 49.6394 54.6833C50.4123 53.3995 51.286 52.1785 52.2528 51.0334C52.7164 50.4985 52.7892 49.7279 52.435 49.1154L47.7013 40.897C47.5795 40.69 47.5454 40.4435 47.6059 40.2109C47.6672 39.9791 47.8183 39.7814 48.0261 39.6612L61.3938 31.939C61.6023 31.8172 61.8512 31.7847 62.0853 31.8483C62.3148 31.9103 62.5094 32.063 62.6249 32.2708L67.3555 40.4838C67.7097 41.09 68.4044 41.4125 69.0967 41.2908C72.645 40.6419 76.2817 40.6419 79.83 41.2908C80.5223 41.4156 81.2185 41.0924 81.5705 40.4838L86.3065 32.2622C86.4212 32.0576 86.6135 31.9079 86.8399 31.8475C87.0709 31.7847 87.3166 31.8165 87.5244 31.9351L89.9626 33.336C90.4649 40.4342 87.9082 47.4091 82.9365 52.5002H82.9357ZM89.3052 29.1147L89.178 29.0418C88.2059 28.486 87.0523 28.3387 85.9716 28.6317C84.8886 28.9201 83.9668 29.6326 83.414 30.6078L79.2579 37.8223C76.0778 37.3533 72.8466 37.3533 69.6665 37.8223L65.5173 30.6172C64.9646 29.6372 64.0405 28.9217 62.9536 28.6317C61.869 28.3379 60.7123 28.4875 59.7378 29.048L46.3562 36.7789C45.384 37.3409 44.6755 38.2673 44.3871 39.3535C44.0987 40.4388 44.2537 41.5947 44.8189 42.5653L48.9719 49.7752C48.3091 50.6187 47.6896 51.4955 47.1159 52.4025C42.3295 47.4502 39.8084 40.7365 40.1526 33.8577L42.9001 34.6523C43.2459 34.7407 43.6017 34.7865 43.9591 34.7865C45.8848 34.7818 47.5633 33.4747 48.04 31.6087L50.1317 23.56C51.7256 23.36 53.3025 23.0445 54.8506 22.6166C56.3934 22.1886 57.9036 21.6506 59.3696 21.0071L65.2894 26.8541C66.9562 28.4914 69.6316 28.4806 71.2844 26.8285L81.6092 16.361C81.9883 16.6967 82.3752 17.0185 82.7388 17.382C85.9662 20.6133 88.2384 24.6741 89.3052 29.1147ZM47.402 17.382C55.843 8.95971 69.0556 7.66659 78.9695 14.2934L68.9284 24.4717C68.7618 24.6485 68.53 24.7493 68.2873 24.7531C68.0447 24.7562 67.8105 24.6617 67.6384 24.4911L60.8922 17.8278C60.3914 17.334 59.6347 17.2076 59.0006 17.5107C57.3803 18.2906 55.6941 18.924 53.9622 19.4055C52.2272 19.8846 50.4519 20.2071 48.6587 20.3683C47.9586 20.4319 47.3733 20.9281 47.1966 21.6087L44.8119 30.7815C44.7553 31.0102 44.6096 31.2071 44.4064 31.3281C44.2181 31.4436 43.9925 31.4831 43.7754 31.4389L40.5193 30.497C41.4264 25.5268 43.8273 20.9513 47.402 17.382Z" fill="white"/>
</svg>
