<svg width="546" height="87" viewBox="0 0 546 87" fill="none" xmlns="http://www.w3.org/2000/svg">
<path d="M52.32 65.6C52.32 33.56 4.2 52.04 4.2 21.68C4.2 10.04 14.52 2.84 26.64 2.84C41.64 2.84 48.12 12.44 49.56 18.44H51.96C50.16 10.28 42.48 0.679997 26.64 0.679997C11.4 0.679997 1.8 10.64 1.8 21.68C1.8 54.2 49.92 35.72 49.92 65.6C49.92 76.04 41.28 84.68 27.36 84.68C9.24 84.68 3.72 73.04 2.76 66.08H0.36C1.56 76.76 10.44 86.84 27.36 86.84C44.16 86.84 52.32 75.8 52.32 65.6ZM109.816 1.51999H68.5359V86H109.816V83.84H70.9359V44.84H106.216V42.68H70.9359V3.67999H109.816V1.51999ZM172.038 25.28C172.038 37.64 164.598 46.88 147.318 46.88H128.358V3.92H147.078C165.198 3.92 172.038 12.2 172.038 25.28ZM125.958 1.51999V86H128.358V49.16H147.318C148.038 49.16 148.878 49.16 149.598 49.16L172.158 86H175.158L152.358 48.92C166.638 47.36 174.558 38.96 174.558 25.28C174.558 11.24 166.278 1.51999 147.078 1.51999H125.958ZM217.057 82.4L186.337 1.51999H183.577L215.857 86H218.257L250.657 1.51999H248.017L217.057 82.4ZM264.473 86H266.873V1.51999H264.473V86ZM284.325 43.88C284.325 69.08 300.765 86.84 323.685 86.84C343.965 86.84 356.445 76.64 362.205 61.16H359.805C354.885 74.6 342.885 84.68 323.685 84.68C303.285 84.68 286.845 69.2 286.845 43.88C286.845 18.32 303.285 2.84 323.685 2.84C342.885 2.84 354.885 12.92 359.805 26.48H362.205C356.445 10.88 343.965 0.679997 323.685 0.679997C300.765 0.679997 284.325 18.44 284.325 43.88ZM379.552 86H381.952V1.51999H379.552V86ZM480.043 43.88C480.043 18.56 463.243 0.799995 439.723 0.799995C416.203 0.799995 399.403 18.56 399.403 43.88C399.403 69.2 416.203 86.96 439.723 86.96C463.243 86.96 480.043 69.2 480.043 43.88ZM401.923 43.88C401.923 18.44 418.723 2.96 439.723 2.96C460.723 2.96 477.523 18.44 477.523 43.88C477.523 69.32 460.723 84.8 439.723 84.8C418.723 84.8 401.923 69.32 401.923 43.88ZM545.562 65.6C545.562 33.56 497.442 52.04 497.442 21.68C497.442 10.04 507.762 2.84 519.882 2.84C534.882 2.84 541.362 12.44 542.802 18.44H545.202C543.402 10.28 535.722 0.679997 519.882 0.679997C504.642 0.679997 495.042 10.64 495.042 21.68C495.042 54.2 543.162 35.72 543.162 65.6C543.162 76.04 534.522 84.68 520.602 84.68C502.482 84.68 496.962 73.04 496.002 66.08H493.602C494.802 76.76 503.682 86.84 520.602 86.84C537.402 86.84 545.562 75.8 545.562 65.6Z" fill="#5064AA" fill-opacity="0.1"/>
</svg>
