<svg width="16" height="12" viewBox="0 0 16 12" fill="none" xmlns="http://www.w3.org/2000/svg">
<path d="M0 10.0431C0 10.7049 0.536469 11.2414 1.19828 11.2414H14.8017C15.4635 11.2414 16 10.7049 16 10.0431V9.03448H0V10.0431Z" fill="#C8414B"/>
<path d="M14.8017 0.758636H1.19828C0.536469 0.758636 0 1.29511 0 1.95692V2.96554H16V1.95692C16 1.29511 15.4635 0.758636 14.8017 0.758636Z" fill="#C8414B"/>
<path d="M16 2.96564H0V9.0347H16V2.96564Z" fill="#FFD250"/>
<path d="M6.75865 6.00001L6.99255 4.94748C7.01411 4.85054 6.94033 4.75861 6.84102 4.75861H6.67627C6.57699 4.75861 6.50324 4.85057 6.52474 4.94748L6.75865 6.00001Z" fill="#C8414B"/>
<path d="M7.03451 5.44812H6.48279V7.79281H7.03451V5.44812Z" fill="#F5F5F5"/>
<path d="M7.17226 5.17249H6.34467V5.44836H7.17226V5.17249Z" fill="#FAB446"/>
<path d="M7.17253 6H5.79315V6.27588H7.17253V6Z" fill="#C8414B"/>
<path d="M7.17238 7.10345L6.34479 6.8276V6.55173L7.17238 6.8276V7.10345Z" fill="#C8414B"/>
<path d="M2.62071 6.00001L2.85462 4.94748C2.87618 4.85054 2.8024 4.75861 2.70309 4.75861H2.53834C2.43905 4.75861 2.3653 4.85057 2.3868 4.94748L2.62071 6.00001Z" fill="#C8414B"/>
<path d="M3.58618 5.17239C3.43383 5.17239 3.3103 5.29593 3.3103 5.44827V7.24136C3.3103 7.57652 3.62312 8.20689 4.68962 8.20689C5.75612 8.20689 6.06893 7.57655 6.06893 7.24136V5.44827C6.06893 5.29593 5.9454 5.17239 5.79305 5.17239H3.58618Z" fill="#F5F5F5"/>
<path d="M4.68962 6.55171H3.3103V5.44827C3.3103 5.29593 3.43383 5.17239 3.58618 5.17239H4.68962V6.55171Z" fill="#C8414B"/>
<path d="M4.68964 6.5517H6.06895V7.24135C6.06895 7.62226 5.7602 7.93101 5.37929 7.93101C4.99839 7.93101 4.68964 7.62226 4.68964 7.24135V6.5517Z" fill="#C8414B"/>
<path d="M3.3103 6.55173H4.68962V7.24138C4.68962 7.62229 4.38087 7.93104 3.99996 7.93104C3.61905 7.93104 3.3103 7.62229 3.3103 7.24138V6.55173Z" fill="#FAB446"/>
<path d="M4.41381 7.79001V6.55173H4.13794V7.91713C4.24056 7.89632 4.33328 7.85088 4.41381 7.79001Z" fill="#C8414B"/>
<path d="M3.86206 7.91713V6.55173H3.58618V7.79001C3.66674 7.85088 3.75946 7.89632 3.86206 7.91713Z" fill="#C8414B"/>
<path d="M4.41383 6H3.58624V6.27588H4.41383V6Z" fill="#FFB441"/>
<path d="M4.41383 5.44812H3.58624V5.724H4.41383V5.44812Z" fill="#FAB446"/>
<path d="M4.27492 5.61218H3.72321V6.11193H4.27492V5.61218Z" fill="#FAB446"/>
<path d="M2.89638 5.44812H2.34467V7.79281H2.89638V5.44812Z" fill="#F5F5F5"/>
<path d="M3.0345 7.6553H2.20691V7.93118H3.0345V7.6553Z" fill="#FAB446"/>
<path d="M3.0345 5.17249H2.20691V5.44836H3.0345V5.17249Z" fill="#FAB446"/>
<path d="M3.17247 7.93094H2.06903V8.20681H3.17247V7.93094Z" fill="#5064AA"/>
<path d="M7.31038 7.6553H6.48279V7.93118H7.31038V7.6553Z" fill="#FAB446"/>
<path d="M7.31029 7.93094H6.20685V8.20681H7.31029V7.93094Z" fill="#5064AA"/>
<path d="M5.51743 4.89658H3.86224V5.17245H5.51743V4.89658Z" fill="#FAB446"/>
<path d="M4.82769 4.06906H4.55182V4.89665H4.82769V4.06906Z" fill="#FFB441"/>
<path d="M4.41378 4.48274C4.18559 4.48274 4 4.29712 4 4.06896C4 3.84078 4.18562 3.65518 4.41378 3.65518C4.64197 3.65518 4.82756 3.84081 4.82756 4.06896C4.82759 4.29712 4.64197 4.48274 4.41378 4.48274ZM4.41378 3.93103C4.33769 3.93103 4.27584 3.99284 4.27584 4.06896C4.27584 4.14506 4.33766 4.2069 4.41378 4.2069C4.48991 4.2069 4.55172 4.14509 4.55172 4.06896C4.55172 3.99287 4.48991 3.93103 4.41378 3.93103Z" fill="#F5F5F5"/>
<path d="M4.96554 4.48274C4.73735 4.48274 4.55176 4.29712 4.55176 4.06896C4.55176 3.84078 4.73738 3.65518 4.96554 3.65518C5.19373 3.65518 5.37932 3.84081 5.37932 4.06896C5.37932 4.29712 5.1937 4.48274 4.96554 4.48274ZM4.96554 3.93103C4.88945 3.93103 4.8276 3.99284 4.8276 4.06896C4.8276 4.14506 4.88941 4.2069 4.96554 4.2069C5.04163 4.2069 5.10348 4.14509 5.10348 4.06896C5.10345 3.99287 5.04163 3.93103 4.96554 3.93103Z" fill="#F5F5F5"/>
<path d="M5.5173 4.75862C5.28911 4.75862 5.10352 4.573 5.10352 4.34484C5.10352 4.11665 5.28914 3.93106 5.5173 3.93106C5.74548 3.93106 5.93108 4.11669 5.93108 4.34484C5.93108 4.573 5.74545 4.75862 5.5173 4.75862ZM5.5173 4.2069C5.4412 4.2069 5.37936 4.26872 5.37936 4.34484C5.37936 4.42094 5.44117 4.48278 5.5173 4.48278C5.59339 4.48278 5.65523 4.42097 5.65523 4.34484C5.65523 4.26872 5.59339 4.2069 5.5173 4.2069Z" fill="#F5F5F5"/>
<path d="M3.86208 4.75862C3.6339 4.75862 3.4483 4.573 3.4483 4.34484C3.4483 4.11665 3.63393 3.93106 3.86208 3.93106C4.09027 3.93106 4.27587 4.11669 4.27587 4.34484C4.2759 4.573 4.09027 4.75862 3.86208 4.75862ZM3.86208 4.2069C3.78599 4.2069 3.72415 4.26872 3.72415 4.34484C3.72415 4.42094 3.78596 4.48278 3.86208 4.48278C3.93821 4.48278 4.00002 4.42094 4.00002 4.34481C4.00002 4.26872 3.93821 4.2069 3.86208 4.2069Z" fill="#F5F5F5"/>
<path d="M5.51727 7.10345V7.24139C5.51727 7.31745 5.45539 7.37932 5.37933 7.37932C5.30327 7.37932 5.24139 7.31745 5.24139 7.24139V7.10345H5.51727ZM5.79311 6.82761H4.96552V7.24139C4.96552 7.46957 5.15114 7.65517 5.3793 7.65517C5.60748 7.65517 5.79308 7.46954 5.79308 7.24139V6.82761H5.79311Z" fill="#FAB446"/>
<path d="M5.37933 6.27587C5.22699 6.27587 5.10345 6.15234 5.10345 5.99999V5.72412C5.10345 5.57177 5.22699 5.44824 5.37933 5.44824C5.53167 5.44824 5.6552 5.57177 5.6552 5.72412V5.99999C5.6552 6.15234 5.53167 6.27587 5.37933 6.27587Z" fill="#FFA0D2"/>
<path d="M4.68972 6.96535C4.91825 6.96535 5.1035 6.78009 5.1035 6.55157C5.1035 6.32304 4.91825 6.13779 4.68972 6.13779C4.4612 6.13779 4.27594 6.32304 4.27594 6.55157C4.27594 6.78009 4.4612 6.96535 4.68972 6.96535Z" fill="#5064AA"/>
<path d="M4.82769 3.51718H4.55182V4.34478H4.82769V3.51718Z" fill="#FAB446"/>
<path d="M3.86206 4.89656L3.58618 4.62069L3.74777 4.45909C3.99756 4.20931 4.33637 4.06897 4.68965 4.06897C5.04293 4.06897 5.38171 4.20931 5.63152 4.45909L5.79311 4.62069L5.51724 4.89656H3.86206Z" fill="#C8414B"/>
<path d="M4.68963 4.75857C4.76582 4.75857 4.82757 4.69681 4.82757 4.62063C4.82757 4.54445 4.76582 4.4827 4.68963 4.4827C4.61345 4.4827 4.5517 4.54445 4.5517 4.62063C4.5517 4.69681 4.61345 4.75857 4.68963 4.75857Z" fill="#FFD250"/>
<path d="M4.13782 4.75857C4.214 4.75857 4.27575 4.69681 4.27575 4.62063C4.27575 4.54445 4.214 4.4827 4.13782 4.4827C4.06163 4.4827 3.99988 4.54445 3.99988 4.62063C3.99988 4.69681 4.06163 4.75857 4.13782 4.75857Z" fill="#FFD250"/>
<path d="M5.24127 4.75857C5.31745 4.75857 5.37921 4.69681 5.37921 4.62063C5.37921 4.54445 5.31745 4.4827 5.24127 4.4827C5.16509 4.4827 5.10333 4.54445 5.10333 4.62063C5.10333 4.69681 5.16509 4.75857 5.24127 4.75857Z" fill="#FFD250"/>
<path d="M3.58628 6H2.20691V6.27588H3.58628V6Z" fill="#C8414B"/>
<path d="M2.20697 7.10345L3.03453 6.8276V6.55173L2.20697 6.8276V7.10345Z" fill="#C8414B"/>
</svg>
